<svg version="1.1" xmlns="http://www.w3.org/2000/svg" width="1200px" height="1200px" viewBox="0 0 1247 1247"  preserveAspectRatio="xMinYMin meet"><rect width="100%" height="100%" fill="#ffffff" cx="0" cy="0"/><path d="M29,29l29,0 0,29 -29,0 0,-29z M58,29l29,0 0,29 -29,0 0,-29z M87,29l29,0 0,29 -29,0 0,-29z M116,29l29,0 0,29 -29,0 0,-29z M145,29l29,0 0,29 -29,0 0,-29z M174,29l29,0 0,29 -29,0 0,-29z M203,29l29,0 0,29 -29,0 0,-29z M261,29l29,0 0,29 -29,0 0,-29z M319,29l29,0 0,29 -29,0 0,-29z M377,29l29,0 0,29 -29,0 0,-29z M406,29l29,0 0,29 -29,0 0,-29z M464,29l29,0 0,29 -29,0 0,-29z M493,29l29,0 0,29 -29,0 0,-29z M551,29l29,0 0,29 -29,0 0,-29z M609,29l29,0 0,29 -29,0 0,-29z M667,29l29,0 0,29 -29,0 0,-29z M696,29l29,0 0,29 -29,0 0,-29z M754,29l29,0 0,29 -29,0 0,-29z M783,29l29,0 0,29 -29,0 0,-29z M812,29l29,0 0,29 -29,0 0,-29z M841,29l29,0 0,29 -29,0 0,-29z M899,29l29,0 0,29 -29,0 0,-29z M1015,29l29,0 0,29 -29,0 0,-29z M1044,29l29,0 0,29 -29,0 0,-29z M1073,29l29,0 0,29 -29,0 0,-29z M1102,29l29,0 0,29 -29,0 0,-29z M1131,29l29,0 0,29 -29,0 0,-29z M1160,29l29,0 0,29 -29,0 0,-29z M1189,29l29,0 0,29 -29,0 0,-29z M29,58l29,0 0,29 -29,0 0,-29z M203,58l29,0 0,29 -29,0 0,-29z M261,58l29,0 0,29 -29,0 0,-29z M348,58l29,0 0,29 -29,0 0,-29z M377,58l29,0 0,29 -29,0 0,-29z M406,58l29,0 0,29 -29,0 0,-29z M435,58l29,0 0,29 -29,0 0,-29z M493,58l29,0 0,29 -29,0 0,-29z M551,58l29,0 0,29 -29,0 0,-29z M580,58l29,0 0,29 -29,0 0,-29z M609,58l29,0 0,29 -29,0 0,-29z M667,58l29,0 0,29 -29,0 0,-29z M725,58l29,0 0,29 -29,0 0,-29z M754,58l29,0 0,29 -29,0 0,-29z M783,58l29,0 0,29 -29,0 0,-29z M870,58l29,0 0,29 -29,0 0,-29z M899,58l29,0 0,29 -29,0 0,-29z M928,58l29,0 0,29 -29,0 0,-29z M1015,58l29,0 0,29 -29,0 0,-29z M1189,58l29,0 0,29 -29,0 0,-29z M29,87l29,0 0,29 -29,0 0,-29z M87,87l29,0 0,29 -29,0 0,-29z M116,87l29,0 0,29 -29,0 0,-29z M145,87l29,0 0,29 -29,0 0,-29z M203,87l29,0 0,29 -29,0 0,-29z M261,87l29,0 0,29 -29,0 0,-29z M290,87l29,0 0,29 -29,0 0,-29z M348,87l29,0 0,29 -29,0 0,-29z M435,87l29,0 0,29 -29,0 0,-29z M493,87l29,0 0,29 -29,0 0,-29z M522,87l29,0 0,29 -29,0 0,-29z M551,87l29,0 0,29 -29,0 0,-29z M638,87l29,0 0,29 -29,0 0,-29z M696,87l29,0 0,29 -29,0 0,-29z M783,87l29,0 0,29 -29,0 0,-29z M812,87l29,0 0,29 -29,0 0,-29z M870,87l29,0 0,29 -29,0 0,-29z M899,87l29,0 0,29 -29,0 0,-29z M957,87l29,0 0,29 -29,0 0,-29z M1015,87l29,0 0,29 -29,0 0,-29z M1073,87l29,0 0,29 -29,0 0,-29z M1102,87l29,0 0,29 -29,0 0,-29z M1131,87l29,0 0,29 -29,0 0,-29z M1189,87l29,0 0,29 -29,0 0,-29z M29,116l29,0 0,29 -29,0 0,-29z M87,116l29,0 0,29 -29,0 0,-29z M116,116l29,0 0,29 -29,0 0,-29z M145,116l29,0 0,29 -29,0 0,-29z M203,116l29,0 0,29 -29,0 0,-29z M261,116l29,0 0,29 -29,0 0,-29z M290,116l29,0 0,29 -29,0 0,-29z M319,116l29,0 0,29 -29,0 0,-29z M348,116l29,0 0,29 -29,0 0,-29z M377,116l29,0 0,29 -29,0 0,-29z M464,116l29,0 0,29 -29,0 0,-29z M493,116l29,0 0,29 -29,0 0,-29z M522,116l29,0 0,29 -29,0 0,-29z M580,116l29,0 0,29 -29,0 0,-29z M754,116l29,0 0,29 -29,0 0,-29z M783,116l29,0 0,29 -29,0 0,-29z M841,116l29,0 0,29 -29,0 0,-29z M899,116l29,0 0,29 -29,0 0,-29z M957,116l29,0 0,29 -29,0 0,-29z M1015,116l29,0 0,29 -29,0 0,-29z M1073,116l29,0 0,29 -29,0 0,-29z M1102,116l29,0 0,29 -29,0 0,-29z M1131,116l29,0 0,29 -29,0 0,-29z M1189,116l29,0 0,29 -29,0 0,-29z M29,145l29,0 0,29 -29,0 0,-29z M87,145l29,0 0,29 -29,0 0,-29z M116,145l29,0 0,29 -29,0 0,-29z M145,145l29,0 0,29 -29,0 0,-29z M203,145l29,0 0,29 -29,0 0,-29z M319,145l29,0 0,29 -29,0 0,-29z M406,145l29,0 0,29 -29,0 0,-29z M493,145l29,0 0,29 -29,0 0,-29z M522,145l29,0 0,29 -29,0 0,-29z M580,145l29,0 0,29 -29,0 0,-29z M696,145l29,0 0,29 -29,0 0,-29z M754,145l29,0 0,29 -29,0 0,-29z M783,145l29,0 0,29 -29,0 0,-29z M812,145l29,0 0,29 -29,0 0,-29z M841,145l29,0 0,29 -29,0 0,-29z M899,145l29,0 0,29 -29,0 0,-29z M1015,145l29,0 0,29 -29,0 0,-29z M1073,145l29,0 0,29 -29,0 0,-29z M1102,145l29,0 0,29 -29,0 0,-29z M1131,145l29,0 0,29 -29,0 0,-29z M1189,145l29,0 0,29 -29,0 0,-29z M29,174l29,0 0,29 -29,0 0,-29z M203,174l29,0 0,29 -29,0 0,-29z M261,174l29,0 0,29 -29,0 0,-29z M290,174l29,0 0,29 -29,0 0,-29z M319,174l29,0 0,29 -29,0 0,-29z M377,174l29,0 0,29 -29,0 0,-29z M406,174l29,0 0,29 -29,0 0,-29z M464,174l29,0 0,29 -29,0 0,-29z M522,174l29,0 0,29 -29,0 0,-29z M609,174l29,0 0,29 -29,0 0,-29z M667,174l29,0 0,29 -29,0 0,-29z M725,174l29,0 0,29 -29,0 0,-29z M754,174l29,0 0,29 -29,0 0,-29z M899,174l29,0 0,29 -29,0 0,-29z M928,174l29,0 0,29 -29,0 0,-29z M1015,174l29,0 0,29 -29,0 0,-29z M1189,174l29,0 0,29 -29,0 0,-29z M29,203l29,0 0,29 -29,0 0,-29z M58,203l29,0 0,29 -29,0 0,-29z M87,203l29,0 0,29 -29,0 0,-29z M116,203l29,0 0,29 -29,0 0,-29z M145,203l29,0 0,29 -29,0 0,-29z M174,203l29,0 0,29 -29,0 0,-29z M203,203l29,0 0,29 -29,0 0,-29z M261,203l29,0 0,29 -29,0 0,-29z M319,203l29,0 0,29 -29,0 0,-29z M377,203l29,0 0,29 -29,0 0,-29z M435,203l29,0 0,29 -29,0 0,-29z M493,203l29,0 0,29 -29,0 0,-29z M551,203l29,0 0,29 -29,0 0,-29z M609,203l29,0 0,29 -29,0 0,-29z M667,203l29,0 0,29 -29,0 0,-29z M725,203l29,0 0,29 -29,0 0,-29z M783,203l29,0 0,29 -29,0 0,-29z M841,203l29,0 0,29 -29,0 0,-29z M899,203l29,0 0,29 -29,0 0,-29z M957,203l29,0 0,29 -29,0 0,-29z M1015,203l29,0 0,29 -29,0 0,-29z M1044,203l29,0 0,29 -29,0 0,-29z M1073,203l29,0 0,29 -29,0 0,-29z M1102,203l29,0 0,29 -29,0 0,-29z M1131,203l29,0 0,29 -29,0 0,-29z M1160,203l29,0 0,29 -29,0 0,-29z M1189,203l29,0 0,29 -29,0 0,-29z M348,232l29,0 0,29 -29,0 0,-29z M377,232l29,0 0,29 -29,0 0,-29z M522,232l29,0 0,29 -29,0 0,-29z M551,232l29,0 0,29 -29,0 0,-29z M580,232l29,0 0,29 -29,0 0,-29z M609,232l29,0 0,29 -29,0 0,-29z M638,232l29,0 0,29 -29,0 0,-29z M696,232l29,0 0,29 -29,0 0,-29z M725,232l29,0 0,29 -29,0 0,-29z M783,232l29,0 0,29 -29,0 0,-29z M841,232l29,0 0,29 -29,0 0,-29z M870,232l29,0 0,29 -29,0 0,-29z M899,232l29,0 0,29 -29,0 0,-29z M957,232l29,0 0,29 -29,0 0,-29z M29,261l29,0 0,29 -29,0 0,-29z M58,261l29,0 0,29 -29,0 0,-29z M145,261l29,0 0,29 -29,0 0,-29z M174,261l29,0 0,29 -29,0 0,-29z M203,261l29,0 0,29 -29,0 0,-29z M319,261l29,0 0,29 -29,0 0,-29z M464,261l29,0 0,29 -29,0 0,-29z M493,261l29,0 0,29 -29,0 0,-29z M609,261l29,0 0,29 -29,0 0,-29z M638,261l29,0 0,29 -29,0 0,-29z M667,261l29,0 0,29 -29,0 0,-29z M725,261l29,0 0,29 -29,0 0,-29z M783,261l29,0 0,29 -29,0 0,-29z M870,261l29,0 0,29 -29,0 0,-29z M957,261l29,0 0,29 -29,0 0,-29z M1044,261l29,0 0,29 -29,0 0,-29z M1102,261l29,0 0,29 -29,0 0,-29z M1131,261l29,0 0,29 -29,0 0,-29z M1160,261l29,0 0,29 -29,0 0,-29z M1189,261l29,0 0,29 -29,0 0,-29z M29,290l29,0 0,29 -29,0 0,-29z M58,290l29,0 0,29 -29,0 0,-29z M174,290l29,0 0,29 -29,0 0,-29z M232,290l29,0 0,29 -29,0 0,-29z M290,290l29,0 0,29 -29,0 0,-29z M377,290l29,0 0,29 -29,0 0,-29z M435,290l29,0 0,29 -29,0 0,-29z M493,290l29,0 0,29 -29,0 0,-29z M522,290l29,0 0,29 -29,0 0,-29z M551,290l29,0 0,29 -29,0 0,-29z M638,290l29,0 0,29 -29,0 0,-29z M696,290l29,0 0,29 -29,0 0,-29z M783,290l29,0 0,29 -29,0 0,-29z M812,290l29,0 0,29 -29,0 0,-29z M841,290l29,0 0,29 -29,0 0,-29z M870,290l29,0 0,29 -29,0 0,-29z M1015,290l29,0 0,29 -29,0 0,-29z M1044,290l29,0 0,29 -29,0 0,-29z M1073,290l29,0 0,29 -29,0 0,-29z M1131,290l29,0 0,29 -29,0 0,-29z M1189,290l29,0 0,29 -29,0 0,-29z M58,319l29,0 0,29 -29,0 0,-29z M87,319l29,0 0,29 -29,0 0,-29z M145,319l29,0 0,29 -29,0 0,-29z M174,319l29,0 0,29 -29,0 0,-29z M203,319l29,0 0,29 -29,0 0,-29z M232,319l29,0 0,29 -29,0 0,-29z M290,319l29,0 0,29 -29,0 0,-29z M319,319l29,0 0,29 -29,0 0,-29z M348,319l29,0 0,29 -29,0 0,-29z M377,319l29,0 0,29 -29,0 0,-29z M406,319l29,0 0,29 -29,0 0,-29z M435,319l29,0 0,29 -29,0 0,-29z M464,319l29,0 0,29 -29,0 0,-29z M493,319l29,0 0,29 -29,0 0,-29z M551,319l29,0 0,29 -29,0 0,-29z M609,319l29,0 0,29 -29,0 0,-29z M638,319l29,0 0,29 -29,0 0,-29z M696,319l29,0 0,29 -29,0 0,-29z M783,319l29,0 0,29 -29,0 0,-29z M812,319l29,0 0,29 -29,0 0,-29z M870,319l29,0 0,29 -29,0 0,-29z M957,319l29,0 0,29 -29,0 0,-29z M1015,319l29,0 0,29 -29,0 0,-29z M1073,319l29,0 0,29 -29,0 0,-29z M1189,319l29,0 0,29 -29,0 0,-29z M58,348l29,0 0,29 -29,0 0,-29z M87,348l29,0 0,29 -29,0 0,-29z M116,348l29,0 0,29 -29,0 0,-29z M261,348l29,0 0,29 -29,0 0,-29z M290,348l29,0 0,29 -29,0 0,-29z M319,348l29,0 0,29 -29,0 0,-29z M348,348l29,0 0,29 -29,0 0,-29z M377,348l29,0 0,29 -29,0 0,-29z M406,348l29,0 0,29 -29,0 0,-29z M580,348l29,0 0,29 -29,0 0,-29z M638,348l29,0 0,29 -29,0 0,-29z M667,348l29,0 0,29 -29,0 0,-29z M696,348l29,0 0,29 -29,0 0,-29z M725,348l29,0 0,29 -29,0 0,-29z M783,348l29,0 0,29 -29,0 0,-29z M870,348l29,0 0,29 -29,0 0,-29z M899,348l29,0 0,29 -29,0 0,-29z M928,348l29,0 0,29 -29,0 0,-29z M1015,348l29,0 0,29 -29,0 0,-29z M1073,348l29,0 0,29 -29,0 0,-29z M1102,348l29,0 0,29 -29,0 0,-29z M1160,348l29,0 0,29 -29,0 0,-29z M1189,348l29,0 0,29 -29,0 0,-29z M29,377l29,0 0,29 -29,0 0,-29z M87,377l29,0 0,29 -29,0 0,-29z M145,377l29,0 0,29 -29,0 0,-29z M174,377l29,0 0,29 -29,0 0,-29z M203,377l29,0 0,29 -29,0 0,-29z M290,377l29,0 0,29 -29,0 0,-29z M319,377l29,0 0,29 -29,0 0,-29z M348,377l29,0 0,29 -29,0 0,-29z M406,377l29,0 0,29 -29,0 0,-29z M464,377l29,0 0,29 -29,0 0,-29z M493,377l29,0 0,29 -29,0 0,-29z M580,377l29,0 0,29 -29,0 0,-29z M609,377l29,0 0,29 -29,0 0,-29z M638,377l29,0 0,29 -29,0 0,-29z M667,377l29,0 0,29 -29,0 0,-29z M725,377l29,0 0,29 -29,0 0,-29z M841,377l29,0 0,29 -29,0 0,-29z M870,377l29,0 0,29 -29,0 0,-29z M928,377l29,0 0,29 -29,0 0,-29z M957,377l29,0 0,29 -29,0 0,-29z M986,377l29,0 0,29 -29,0 0,-29z M1160,377l29,0 0,29 -29,0 0,-29z M1189,377l29,0 0,29 -29,0 0,-29z M29,406l29,0 0,29 -29,0 0,-29z M87,406l29,0 0,29 -29,0 0,-29z M116,406l29,0 0,29 -29,0 0,-29z M232,406l29,0 0,29 -29,0 0,-29z M319,406l29,0 0,29 -29,0 0,-29z M377,406l29,0 0,29 -29,0 0,-29z M406,406l29,0 0,29 -29,0 0,-29z M435,406l29,0 0,29 -29,0 0,-29z M551,406l29,0 0,29 -29,0 0,-29z M580,406l29,0 0,29 -29,0 0,-29z M609,406l29,0 0,29 -29,0 0,-29z M667,406l29,0 0,29 -29,0 0,-29z M696,406l29,0 0,29 -29,0 0,-29z M783,406l29,0 0,29 -29,0 0,-29z M812,406l29,0 0,29 -29,0 0,-29z M841,406l29,0 0,29 -29,0 0,-29z M899,406l29,0 0,29 -29,0 0,-29z M957,406l29,0 0,29 -29,0 0,-29z M986,406l29,0 0,29 -29,0 0,-29z M1015,406l29,0 0,29 -29,0 0,-29z M1044,406l29,0 0,29 -29,0 0,-29z M1073,406l29,0 0,29 -29,0 0,-29z M1160,406l29,0 0,29 -29,0 0,-29z M1189,406l29,0 0,29 -29,0 0,-29z M58,435l29,0 0,29 -29,0 0,-29z M87,435l29,0 0,29 -29,0 0,-29z M174,435l29,0 0,29 -29,0 0,-29z M203,435l29,0 0,29 -29,0 0,-29z M232,435l29,0 0,29 -29,0 0,-29z M319,435l29,0 0,29 -29,0 0,-29z M348,435l29,0 0,29 -29,0 0,-29z M377,435l29,0 0,29 -29,0 0,-29z M464,435l29,0 0,29 -29,0 0,-29z M667,435l29,0 0,29 -29,0 0,-29z M696,435l29,0 0,29 -29,0 0,-29z M725,435l29,0 0,29 -29,0 0,-29z M754,435l29,0 0,29 -29,0 0,-29z M783,435l29,0 0,29 -29,0 0,-29z M812,435l29,0 0,29 -29,0 0,-29z M1044,435l29,0 0,29 -29,0 0,-29z M1102,435l29,0 0,29 -29,0 0,-29z M1131,435l29,0 0,29 -29,0 0,-29z M1189,435l29,0 0,29 -29,0 0,-29z M29,464l29,0 0,29 -29,0 0,-29z M116,464l29,0 0,29 -29,0 0,-29z M145,464l29,0 0,29 -29,0 0,-29z M174,464l29,0 0,29 -29,0 0,-29z M348,464l29,0 0,29 -29,0 0,-29z M435,464l29,0 0,29 -29,0 0,-29z M464,464l29,0 0,29 -29,0 0,-29z M493,464l29,0 0,29 -29,0 0,-29z M522,464l29,0 0,29 -29,0 0,-29z M580,464l29,0 0,29 -29,0 0,-29z M638,464l29,0 0,29 -29,0 0,-29z M667,464l29,0 0,29 -29,0 0,-29z M725,464l29,0 0,29 -29,0 0,-29z M812,464l29,0 0,29 -29,0 0,-29z M841,464l29,0 0,29 -29,0 0,-29z M870,464l29,0 0,29 -29,0 0,-29z M928,464l29,0 0,29 -29,0 0,-29z M986,464l29,0 0,29 -29,0 0,-29z M1015,464l29,0 0,29 -29,0 0,-29z M1102,464l29,0 0,29 -29,0 0,-29z M1160,464l29,0 0,29 -29,0 0,-29z M1189,464l29,0 0,29 -29,0 0,-29z M29,493l29,0 0,29 -29,0 0,-29z M87,493l29,0 0,29 -29,0 0,-29z M203,493l29,0 0,29 -29,0 0,-29z M290,493l29,0 0,29 -29,0 0,-29z M522,493l29,0 0,29 -29,0 0,-29z M580,493l29,0 0,29 -29,0 0,-29z M609,493l29,0 0,29 -29,0 0,-29z M638,493l29,0 0,29 -29,0 0,-29z M696,493l29,0 0,29 -29,0 0,-29z M870,493l29,0 0,29 -29,0 0,-29z M928,493l29,0 0,29 -29,0 0,-29z M986,493l29,0 0,29 -29,0 0,-29z M1102,493l29,0 0,29 -29,0 0,-29z M1160,493l29,0 0,29 -29,0 0,-29z M87,522l29,0 0,29 -29,0 0,-29z M145,522l29,0 0,29 -29,0 0,-29z M232,522l29,0 0,29 -29,0 0,-29z M261,522l29,0 0,29 -29,0 0,-29z M290,522l29,0 0,29 -29,0 0,-29z M319,522l29,0 0,29 -29,0 0,-29z M348,522l29,0 0,29 -29,0 0,-29z M406,522l29,0 0,29 -29,0 0,-29z M464,522l29,0 0,29 -29,0 0,-29z M493,522l29,0 0,29 -29,0 0,-29z M551,522l29,0 0,29 -29,0 0,-29z M696,522l29,0 0,29 -29,0 0,-29z M754,522l29,0 0,29 -29,0 0,-29z M783,522l29,0 0,29 -29,0 0,-29z M812,522l29,0 0,29 -29,0 0,-29z M841,522l29,0 0,29 -29,0 0,-29z M870,522l29,0 0,29 -29,0 0,-29z M899,522l29,0 0,29 -29,0 0,-29z M1015,522l29,0 0,29 -29,0 0,-29z M1044,522l29,0 0,29 -29,0 0,-29z M1073,522l29,0 0,29 -29,0 0,-29z M1102,522l29,0 0,29 -29,0 0,-29z M1131,522l29,0 0,29 -29,0 0,-29z M1189,522l29,0 0,29 -29,0 0,-29z M58,551l29,0 0,29 -29,0 0,-29z M145,551l29,0 0,29 -29,0 0,-29z M203,551l29,0 0,29 -29,0 0,-29z M232,551l29,0 0,29 -29,0 0,-29z M261,551l29,0 0,29 -29,0 0,-29z M348,551l29,0 0,29 -29,0 0,-29z M377,551l29,0 0,29 -29,0 0,-29z M464,551l29,0 0,29 -29,0 0,-29z M522,551l29,0 0,29 -29,0 0,-29z M667,551l29,0 0,29 -29,0 0,-29z M696,551l29,0 0,29 -29,0 0,-29z M725,551l29,0 0,29 -29,0 0,-29z M783,551l29,0 0,29 -29,0 0,-29z M812,551l29,0 0,29 -29,0 0,-29z M899,551l29,0 0,29 -29,0 0,-29z M957,551l29,0 0,29 -29,0 0,-29z M986,551l29,0 0,29 -29,0 0,-29z M1015,551l29,0 0,29 -29,0 0,-29z M1073,551l29,0 0,29 -29,0 0,-29z M1189,551l29,0 0,29 -29,0 0,-29z M58,580l29,0 0,29 -29,0 0,-29z M116,580l29,0 0,29 -29,0 0,-29z M145,580l29,0 0,29 -29,0 0,-29z M261,580l29,0 0,29 -29,0 0,-29z M290,580l29,0 0,29 -29,0 0,-29z M435,580l29,0 0,29 -29,0 0,-29z M464,580l29,0 0,29 -29,0 0,-29z M493,580l29,0 0,29 -29,0 0,-29z M522,580l29,0 0,29 -29,0 0,-29z M551,580l29,0 0,29 -29,0 0,-29z M580,580l29,0 0,29 -29,0 0,-29z M609,580l29,0 0,29 -29,0 0,-29z M638,580l29,0 0,29 -29,0 0,-29z M696,580l29,0 0,29 -29,0 0,-29z M783,580l29,0 0,29 -29,0 0,-29z M870,580l29,0 0,29 -29,0 0,-29z M957,580l29,0 0,29 -29,0 0,-29z M986,580l29,0 0,29 -29,0 0,-29z M1044,580l29,0 0,29 -29,0 0,-29z M1102,580l29,0 0,29 -29,0 0,-29z M1160,580l29,0 0,29 -29,0 0,-29z M58,609l29,0 0,29 -29,0 0,-29z M87,609l29,0 0,29 -29,0 0,-29z M174,609l29,0 0,29 -29,0 0,-29z M203,609l29,0 0,29 -29,0 0,-29z M290,609l29,0 0,29 -29,0 0,-29z M377,609l29,0 0,29 -29,0 0,-29z M406,609l29,0 0,29 -29,0 0,-29z M435,609l29,0 0,29 -29,0 0,-29z M551,609l29,0 0,29 -29,0 0,-29z M609,609l29,0 0,29 -29,0 0,-29z M638,609l29,0 0,29 -29,0 0,-29z M696,609l29,0 0,29 -29,0 0,-29z M725,609l29,0 0,29 -29,0 0,-29z M812,609l29,0 0,29 -29,0 0,-29z M870,609l29,0 0,29 -29,0 0,-29z M928,609l29,0 0,29 -29,0 0,-29z M1044,609l29,0 0,29 -29,0 0,-29z M29,638l29,0 0,29 -29,0 0,-29z M116,638l29,0 0,29 -29,0 0,-29z M261,638l29,0 0,29 -29,0 0,-29z M290,638l29,0 0,29 -29,0 0,-29z M319,638l29,0 0,29 -29,0 0,-29z M406,638l29,0 0,29 -29,0 0,-29z M493,638l29,0 0,29 -29,0 0,-29z M638,638l29,0 0,29 -29,0 0,-29z M696,638l29,0 0,29 -29,0 0,-29z M754,638l29,0 0,29 -29,0 0,-29z M812,638l29,0 0,29 -29,0 0,-29z M841,638l29,0 0,29 -29,0 0,-29z M899,638l29,0 0,29 -29,0 0,-29z M957,638l29,0 0,29 -29,0 0,-29z M1015,638l29,0 0,29 -29,0 0,-29z M1044,638l29,0 0,29 -29,0 0,-29z M1073,638l29,0 0,29 -29,0 0,-29z M1102,638l29,0 0,29 -29,0 0,-29z M1131,638l29,0 0,29 -29,0 0,-29z M1160,638l29,0 0,29 -29,0 0,-29z M1189,638l29,0 0,29 -29,0 0,-29z M58,667l29,0 0,29 -29,0 0,-29z M174,667l29,0 0,29 -29,0 0,-29z M203,667l29,0 0,29 -29,0 0,-29z M232,667l29,0 0,29 -29,0 0,-29z M290,667l29,0 0,29 -29,0 0,-29z M435,667l29,0 0,29 -29,0 0,-29z M493,667l29,0 0,29 -29,0 0,-29z M522,667l29,0 0,29 -29,0 0,-29z M696,667l29,0 0,29 -29,0 0,-29z M725,667l29,0 0,29 -29,0 0,-29z M754,667l29,0 0,29 -29,0 0,-29z M812,667l29,0 0,29 -29,0 0,-29z M841,667l29,0 0,29 -29,0 0,-29z M986,667l29,0 0,29 -29,0 0,-29z M1015,667l29,0 0,29 -29,0 0,-29z M1073,667l29,0 0,29 -29,0 0,-29z M1131,667l29,0 0,29 -29,0 0,-29z M1189,667l29,0 0,29 -29,0 0,-29z M116,696l29,0 0,29 -29,0 0,-29z M174,696l29,0 0,29 -29,0 0,-29z M232,696l29,0 0,29 -29,0 0,-29z M261,696l29,0 0,29 -29,0 0,-29z M290,696l29,0 0,29 -29,0 0,-29z M377,696l29,0 0,29 -29,0 0,-29z M522,696l29,0 0,29 -29,0 0,-29z M551,696l29,0 0,29 -29,0 0,-29z M580,696l29,0 0,29 -29,0 0,-29z M609,696l29,0 0,29 -29,0 0,-29z M638,696l29,0 0,29 -29,0 0,-29z M696,696l29,0 0,29 -29,0 0,-29z M725,696l29,0 0,29 -29,0 0,-29z M783,696l29,0 0,29 -29,0 0,-29z M812,696l29,0 0,29 -29,0 0,-29z M841,696l29,0 0,29 -29,0 0,-29z M870,696l29,0 0,29 -29,0 0,-29z M899,696l29,0 0,29 -29,0 0,-29z M1015,696l29,0 0,29 -29,0 0,-29z M1044,696l29,0 0,29 -29,0 0,-29z M1160,696l29,0 0,29 -29,0 0,-29z M1189,696l29,0 0,29 -29,0 0,-29z M58,725l29,0 0,29 -29,0 0,-29z M116,725l29,0 0,29 -29,0 0,-29z M203,725l29,0 0,29 -29,0 0,-29z M261,725l29,0 0,29 -29,0 0,-29z M290,725l29,0 0,29 -29,0 0,-29z M348,725l29,0 0,29 -29,0 0,-29z M377,725l29,0 0,29 -29,0 0,-29z M464,725l29,0 0,29 -29,0 0,-29z M522,725l29,0 0,29 -29,0 0,-29z M609,725l29,0 0,29 -29,0 0,-29z M638,725l29,0 0,29 -29,0 0,-29z M667,725l29,0 0,29 -29,0 0,-29z M696,725l29,0 0,29 -29,0 0,-29z M725,725l29,0 0,29 -29,0 0,-29z M870,725l29,0 0,29 -29,0 0,-29z M928,725l29,0 0,29 -29,0 0,-29z M957,725l29,0 0,29 -29,0 0,-29z M986,725l29,0 0,29 -29,0 0,-29z M1102,725l29,0 0,29 -29,0 0,-29z M1189,725l29,0 0,29 -29,0 0,-29z M116,754l29,0 0,29 -29,0 0,-29z M232,754l29,0 0,29 -29,0 0,-29z M290,754l29,0 0,29 -29,0 0,-29z M348,754l29,0 0,29 -29,0 0,-29z M435,754l29,0 0,29 -29,0 0,-29z M464,754l29,0 0,29 -29,0 0,-29z M493,754l29,0 0,29 -29,0 0,-29z M522,754l29,0 0,29 -29,0 0,-29z M638,754l29,0 0,29 -29,0 0,-29z M696,754l29,0 0,29 -29,0 0,-29z M754,754l29,0 0,29 -29,0 0,-29z M783,754l29,0 0,29 -29,0 0,-29z M812,754l29,0 0,29 -29,0 0,-29z M841,754l29,0 0,29 -29,0 0,-29z M899,754l29,0 0,29 -29,0 0,-29z M1015,754l29,0 0,29 -29,0 0,-29z M1044,754l29,0 0,29 -29,0 0,-29z M1073,754l29,0 0,29 -29,0 0,-29z M1102,754l29,0 0,29 -29,0 0,-29z M1131,754l29,0 0,29 -29,0 0,-29z M1189,754l29,0 0,29 -29,0 0,-29z M29,783l29,0 0,29 -29,0 0,-29z M58,783l29,0 0,29 -29,0 0,-29z M145,783l29,0 0,29 -29,0 0,-29z M203,783l29,0 0,29 -29,0 0,-29z M232,783l29,0 0,29 -29,0 0,-29z M290,783l29,0 0,29 -29,0 0,-29z M348,783l29,0 0,29 -29,0 0,-29z M377,783l29,0 0,29 -29,0 0,-29z M406,783l29,0 0,29 -29,0 0,-29z M435,783l29,0 0,29 -29,0 0,-29z M464,783l29,0 0,29 -29,0 0,-29z M551,783l29,0 0,29 -29,0 0,-29z M609,783l29,0 0,29 -29,0 0,-29z M696,783l29,0 0,29 -29,0 0,-29z M725,783l29,0 0,29 -29,0 0,-29z M783,783l29,0 0,29 -29,0 0,-29z M812,783l29,0 0,29 -29,0 0,-29z M899,783l29,0 0,29 -29,0 0,-29z M1073,783l29,0 0,29 -29,0 0,-29z M1102,783l29,0 0,29 -29,0 0,-29z M1131,783l29,0 0,29 -29,0 0,-29z M1189,783l29,0 0,29 -29,0 0,-29z M29,812l29,0 0,29 -29,0 0,-29z M58,812l29,0 0,29 -29,0 0,-29z M87,812l29,0 0,29 -29,0 0,-29z M116,812l29,0 0,29 -29,0 0,-29z M232,812l29,0 0,29 -29,0 0,-29z M261,812l29,0 0,29 -29,0 0,-29z M290,812l29,0 0,29 -29,0 0,-29z M348,812l29,0 0,29 -29,0 0,-29z M406,812l29,0 0,29 -29,0 0,-29z M464,812l29,0 0,29 -29,0 0,-29z M493,812l29,0 0,29 -29,0 0,-29z M609,812l29,0 0,29 -29,0 0,-29z M638,812l29,0 0,29 -29,0 0,-29z M667,812l29,0 0,29 -29,0 0,-29z M725,812l29,0 0,29 -29,0 0,-29z M870,812l29,0 0,29 -29,0 0,-29z M899,812l29,0 0,29 -29,0 0,-29z M928,812l29,0 0,29 -29,0 0,-29z M1073,812l29,0 0,29 -29,0 0,-29z M87,841l29,0 0,29 -29,0 0,-29z M116,841l29,0 0,29 -29,0 0,-29z M203,841l29,0 0,29 -29,0 0,-29z M232,841l29,0 0,29 -29,0 0,-29z M261,841l29,0 0,29 -29,0 0,-29z M290,841l29,0 0,29 -29,0 0,-29z M319,841l29,0 0,29 -29,0 0,-29z M348,841l29,0 0,29 -29,0 0,-29z M406,841l29,0 0,29 -29,0 0,-29z M464,841l29,0 0,29 -29,0 0,-29z M493,841l29,0 0,29 -29,0 0,-29z M580,841l29,0 0,29 -29,0 0,-29z M609,841l29,0 0,29 -29,0 0,-29z M638,841l29,0 0,29 -29,0 0,-29z M667,841l29,0 0,29 -29,0 0,-29z M725,841l29,0 0,29 -29,0 0,-29z M812,841l29,0 0,29 -29,0 0,-29z M841,841l29,0 0,29 -29,0 0,-29z M870,841l29,0 0,29 -29,0 0,-29z M928,841l29,0 0,29 -29,0 0,-29z M986,841l29,0 0,29 -29,0 0,-29z M1044,841l29,0 0,29 -29,0 0,-29z M1160,841l29,0 0,29 -29,0 0,-29z M1189,841l29,0 0,29 -29,0 0,-29z M29,870l29,0 0,29 -29,0 0,-29z M58,870l29,0 0,29 -29,0 0,-29z M87,870l29,0 0,29 -29,0 0,-29z M174,870l29,0 0,29 -29,0 0,-29z M261,870l29,0 0,29 -29,0 0,-29z M319,870l29,0 0,29 -29,0 0,-29z M377,870l29,0 0,29 -29,0 0,-29z M435,870l29,0 0,29 -29,0 0,-29z M522,870l29,0 0,29 -29,0 0,-29z M551,870l29,0 0,29 -29,0 0,-29z M638,870l29,0 0,29 -29,0 0,-29z M696,870l29,0 0,29 -29,0 0,-29z M783,870l29,0 0,29 -29,0 0,-29z M812,870l29,0 0,29 -29,0 0,-29z M841,870l29,0 0,29 -29,0 0,-29z M870,870l29,0 0,29 -29,0 0,-29z M899,870l29,0 0,29 -29,0 0,-29z M957,870l29,0 0,29 -29,0 0,-29z M1015,870l29,0 0,29 -29,0 0,-29z M1044,870l29,0 0,29 -29,0 0,-29z M1073,870l29,0 0,29 -29,0 0,-29z M1189,870l29,0 0,29 -29,0 0,-29z M87,899l29,0 0,29 -29,0 0,-29z M203,899l29,0 0,29 -29,0 0,-29z M232,899l29,0 0,29 -29,0 0,-29z M348,899l29,0 0,29 -29,0 0,-29z M377,899l29,0 0,29 -29,0 0,-29z M464,899l29,0 0,29 -29,0 0,-29z M522,899l29,0 0,29 -29,0 0,-29z M609,899l29,0 0,29 -29,0 0,-29z M667,899l29,0 0,29 -29,0 0,-29z M696,899l29,0 0,29 -29,0 0,-29z M725,899l29,0 0,29 -29,0 0,-29z M754,899l29,0 0,29 -29,0 0,-29z M783,899l29,0 0,29 -29,0 0,-29z M812,899l29,0 0,29 -29,0 0,-29z M870,899l29,0 0,29 -29,0 0,-29z M986,899l29,0 0,29 -29,0 0,-29z M1015,899l29,0 0,29 -29,0 0,-29z M1102,899l29,0 0,29 -29,0 0,-29z M1131,899l29,0 0,29 -29,0 0,-29z M1189,899l29,0 0,29 -29,0 0,-29z M116,928l29,0 0,29 -29,0 0,-29z M145,928l29,0 0,29 -29,0 0,-29z M174,928l29,0 0,29 -29,0 0,-29z M290,928l29,0 0,29 -29,0 0,-29z M319,928l29,0 0,29 -29,0 0,-29z M348,928l29,0 0,29 -29,0 0,-29z M435,928l29,0 0,29 -29,0 0,-29z M464,928l29,0 0,29 -29,0 0,-29z M493,928l29,0 0,29 -29,0 0,-29z M522,928l29,0 0,29 -29,0 0,-29z M551,928l29,0 0,29 -29,0 0,-29z M638,928l29,0 0,29 -29,0 0,-29z M667,928l29,0 0,29 -29,0 0,-29z M696,928l29,0 0,29 -29,0 0,-29z M725,928l29,0 0,29 -29,0 0,-29z M783,928l29,0 0,29 -29,0 0,-29z M812,928l29,0 0,29 -29,0 0,-29z M870,928l29,0 0,29 -29,0 0,-29z M986,928l29,0 0,29 -29,0 0,-29z M1044,928l29,0 0,29 -29,0 0,-29z M1102,928l29,0 0,29 -29,0 0,-29z M1160,928l29,0 0,29 -29,0 0,-29z M29,957l29,0 0,29 -29,0 0,-29z M58,957l29,0 0,29 -29,0 0,-29z M87,957l29,0 0,29 -29,0 0,-29z M116,957l29,0 0,29 -29,0 0,-29z M203,957l29,0 0,29 -29,0 0,-29z M377,957l29,0 0,29 -29,0 0,-29z M522,957l29,0 0,29 -29,0 0,-29z M609,957l29,0 0,29 -29,0 0,-29z M638,957l29,0 0,29 -29,0 0,-29z M667,957l29,0 0,29 -29,0 0,-29z M696,957l29,0 0,29 -29,0 0,-29z M725,957l29,0 0,29 -29,0 0,-29z M812,957l29,0 0,29 -29,0 0,-29z M870,957l29,0 0,29 -29,0 0,-29z M899,957l29,0 0,29 -29,0 0,-29z M957,957l29,0 0,29 -29,0 0,-29z M986,957l29,0 0,29 -29,0 0,-29z M1015,957l29,0 0,29 -29,0 0,-29z M1044,957l29,0 0,29 -29,0 0,-29z M1073,957l29,0 0,29 -29,0 0,-29z M1102,957l29,0 0,29 -29,0 0,-29z M261,986l29,0 0,29 -29,0 0,-29z M290,986l29,0 0,29 -29,0 0,-29z M348,986l29,0 0,29 -29,0 0,-29z M406,986l29,0 0,29 -29,0 0,-29z M464,986l29,0 0,29 -29,0 0,-29z M493,986l29,0 0,29 -29,0 0,-29z M551,986l29,0 0,29 -29,0 0,-29z M638,986l29,0 0,29 -29,0 0,-29z M696,986l29,0 0,29 -29,0 0,-29z M754,986l29,0 0,29 -29,0 0,-29z M783,986l29,0 0,29 -29,0 0,-29z M812,986l29,0 0,29 -29,0 0,-29z M841,986l29,0 0,29 -29,0 0,-29z M870,986l29,0 0,29 -29,0 0,-29z M899,986l29,0 0,29 -29,0 0,-29z M957,986l29,0 0,29 -29,0 0,-29z M1073,986l29,0 0,29 -29,0 0,-29z M1102,986l29,0 0,29 -29,0 0,-29z M1189,986l29,0 0,29 -29,0 0,-29z M29,1015l29,0 0,29 -29,0 0,-29z M58,1015l29,0 0,29 -29,0 0,-29z M87,1015l29,0 0,29 -29,0 0,-29z M116,1015l29,0 0,29 -29,0 0,-29z M145,1015l29,0 0,29 -29,0 0,-29z M174,1015l29,0 0,29 -29,0 0,-29z M203,1015l29,0 0,29 -29,0 0,-29z M290,1015l29,0 0,29 -29,0 0,-29z M348,1015l29,0 0,29 -29,0 0,-29z M464,1015l29,0 0,29 -29,0 0,-29z M522,1015l29,0 0,29 -29,0 0,-29z M638,1015l29,0 0,29 -29,0 0,-29z M667,1015l29,0 0,29 -29,0 0,-29z M696,1015l29,0 0,29 -29,0 0,-29z M725,1015l29,0 0,29 -29,0 0,-29z M783,1015l29,0 0,29 -29,0 0,-29z M812,1015l29,0 0,29 -29,0 0,-29z M870,1015l29,0 0,29 -29,0 0,-29z M899,1015l29,0 0,29 -29,0 0,-29z M928,1015l29,0 0,29 -29,0 0,-29z M957,1015l29,0 0,29 -29,0 0,-29z M1015,1015l29,0 0,29 -29,0 0,-29z M1073,1015l29,0 0,29 -29,0 0,-29z M1131,1015l29,0 0,29 -29,0 0,-29z M1160,1015l29,0 0,29 -29,0 0,-29z M1189,1015l29,0 0,29 -29,0 0,-29z M29,1044l29,0 0,29 -29,0 0,-29z M203,1044l29,0 0,29 -29,0 0,-29z M261,1044l29,0 0,29 -29,0 0,-29z M290,1044l29,0 0,29 -29,0 0,-29z M319,1044l29,0 0,29 -29,0 0,-29z M348,1044l29,0 0,29 -29,0 0,-29z M377,1044l29,0 0,29 -29,0 0,-29z M435,1044l29,0 0,29 -29,0 0,-29z M493,1044l29,0 0,29 -29,0 0,-29z M522,1044l29,0 0,29 -29,0 0,-29z M551,1044l29,0 0,29 -29,0 0,-29z M580,1044l29,0 0,29 -29,0 0,-29z M638,1044l29,0 0,29 -29,0 0,-29z M725,1044l29,0 0,29 -29,0 0,-29z M783,1044l29,0 0,29 -29,0 0,-29z M870,1044l29,0 0,29 -29,0 0,-29z M928,1044l29,0 0,29 -29,0 0,-29z M957,1044l29,0 0,29 -29,0 0,-29z M1073,1044l29,0 0,29 -29,0 0,-29z M29,1073l29,0 0,29 -29,0 0,-29z M87,1073l29,0 0,29 -29,0 0,-29z M116,1073l29,0 0,29 -29,0 0,-29z M145,1073l29,0 0,29 -29,0 0,-29z M203,1073l29,0 0,29 -29,0 0,-29z M261,1073l29,0 0,29 -29,0 0,-29z M377,1073l29,0 0,29 -29,0 0,-29z M406,1073l29,0 0,29 -29,0 0,-29z M435,1073l29,0 0,29 -29,0 0,-29z M551,1073l29,0 0,29 -29,0 0,-29z M580,1073l29,0 0,29 -29,0 0,-29z M638,1073l29,0 0,29 -29,0 0,-29z M667,1073l29,0 0,29 -29,0 0,-29z M696,1073l29,0 0,29 -29,0 0,-29z M725,1073l29,0 0,29 -29,0 0,-29z M870,1073l29,0 0,29 -29,0 0,-29z M928,1073l29,0 0,29 -29,0 0,-29z M957,1073l29,0 0,29 -29,0 0,-29z M986,1073l29,0 0,29 -29,0 0,-29z M1015,1073l29,0 0,29 -29,0 0,-29z M1044,1073l29,0 0,29 -29,0 0,-29z M1073,1073l29,0 0,29 -29,0 0,-29z M1102,1073l29,0 0,29 -29,0 0,-29z M29,1102l29,0 0,29 -29,0 0,-29z M87,1102l29,0 0,29 -29,0 0,-29z M116,1102l29,0 0,29 -29,0 0,-29z M145,1102l29,0 0,29 -29,0 0,-29z M203,1102l29,0 0,29 -29,0 0,-29z M406,1102l29,0 0,29 -29,0 0,-29z M493,1102l29,0 0,29 -29,0 0,-29z M667,1102l29,0 0,29 -29,0 0,-29z M696,1102l29,0 0,29 -29,0 0,-29z M725,1102l29,0 0,29 -29,0 0,-29z M812,1102l29,0 0,29 -29,0 0,-29z M870,1102l29,0 0,29 -29,0 0,-29z M899,1102l29,0 0,29 -29,0 0,-29z M928,1102l29,0 0,29 -29,0 0,-29z M1160,1102l29,0 0,29 -29,0 0,-29z M1189,1102l29,0 0,29 -29,0 0,-29z M29,1131l29,0 0,29 -29,0 0,-29z M87,1131l29,0 0,29 -29,0 0,-29z M116,1131l29,0 0,29 -29,0 0,-29z M145,1131l29,0 0,29 -29,0 0,-29z M203,1131l29,0 0,29 -29,0 0,-29z M290,1131l29,0 0,29 -29,0 0,-29z M319,1131l29,0 0,29 -29,0 0,-29z M406,1131l29,0 0,29 -29,0 0,-29z M493,1131l29,0 0,29 -29,0 0,-29z M522,1131l29,0 0,29 -29,0 0,-29z M551,1131l29,0 0,29 -29,0 0,-29z M696,1131l29,0 0,29 -29,0 0,-29z M783,1131l29,0 0,29 -29,0 0,-29z M812,1131l29,0 0,29 -29,0 0,-29z M899,1131l29,0 0,29 -29,0 0,-29z M928,1131l29,0 0,29 -29,0 0,-29z M957,1131l29,0 0,29 -29,0 0,-29z M986,1131l29,0 0,29 -29,0 0,-29z M1044,1131l29,0 0,29 -29,0 0,-29z M1102,1131l29,0 0,29 -29,0 0,-29z M1189,1131l29,0 0,29 -29,0 0,-29z M29,1160l29,0 0,29 -29,0 0,-29z M203,1160l29,0 0,29 -29,0 0,-29z M261,1160l29,0 0,29 -29,0 0,-29z M377,1160l29,0 0,29 -29,0 0,-29z M435,1160l29,0 0,29 -29,0 0,-29z M522,1160l29,0 0,29 -29,0 0,-29z M551,1160l29,0 0,29 -29,0 0,-29z M638,1160l29,0 0,29 -29,0 0,-29z M667,1160l29,0 0,29 -29,0 0,-29z M783,1160l29,0 0,29 -29,0 0,-29z M812,1160l29,0 0,29 -29,0 0,-29z M870,1160l29,0 0,29 -29,0 0,-29z M957,1160l29,0 0,29 -29,0 0,-29z M986,1160l29,0 0,29 -29,0 0,-29z M1015,1160l29,0 0,29 -29,0 0,-29z M1073,1160l29,0 0,29 -29,0 0,-29z M1102,1160l29,0 0,29 -29,0 0,-29z M1160,1160l29,0 0,29 -29,0 0,-29z M1189,1160l29,0 0,29 -29,0 0,-29z M29,1189l29,0 0,29 -29,0 0,-29z M58,1189l29,0 0,29 -29,0 0,-29z M87,1189l29,0 0,29 -29,0 0,-29z M116,1189l29,0 0,29 -29,0 0,-29z M145,1189l29,0 0,29 -29,0 0,-29z M174,1189l29,0 0,29 -29,0 0,-29z M203,1189l29,0 0,29 -29,0 0,-29z M261,1189l29,0 0,29 -29,0 0,-29z M290,1189l29,0 0,29 -29,0 0,-29z M348,1189l29,0 0,29 -29,0 0,-29z M464,1189l29,0 0,29 -29,0 0,-29z M493,1189l29,0 0,29 -29,0 0,-29z M522,1189l29,0 0,29 -29,0 0,-29z M580,1189l29,0 0,29 -29,0 0,-29z M638,1189l29,0 0,29 -29,0 0,-29z M667,1189l29,0 0,29 -29,0 0,-29z M725,1189l29,0 0,29 -29,0 0,-29z M783,1189l29,0 0,29 -29,0 0,-29z M870,1189l29,0 0,29 -29,0 0,-29z M957,1189l29,0 0,29 -29,0 0,-29z M986,1189l29,0 0,29 -29,0 0,-29z M1015,1189l29,0 0,29 -29,0 0,-29z M1044,1189l29,0 0,29 -29,0 0,-29z M1102,1189l29,0 0,29 -29,0 0,-29z M1160,1189l29,0 0,29 -29,0 0,-29z " stroke="transparent" fill="#000000"/></svg>